<svg width="170" height="46" viewBox="0 0 170 46" fill="none" xmlns="http://www.w3.org/2000/svg">
<g clip-path="url(#clip0_1_2092)">
<g clip-path="url(#clip1_1_2092)">
<path d="M73.2386 13.4931C73.2386 16.9366 70.9289 19.0333 67.1524 19.0333H63.5259V7.93483H67.1524C70.9289 7.90783 73.2386 10.0165 73.2386 13.4931ZM70.281 13.4931C70.281 11.7503 69.0661 10.6885 67.0744 10.6885H66.3995V16.2557H67.1044C69.0751 16.2557 70.281 15.2089 70.281 13.4841V13.4931Z" fill="#2F2F2F"/>
<path d="M77.6 10.6798V12.2306H81.1276V14.6933H77.6V16.2861H81.8895V19.0487H74.6904V7.9502H81.8895V10.6798H77.6Z" fill="#2F2F2F"/>
<path d="M89.4634 19.0341L86.4938 14.2077V19.0341H83.5422L83.5272 7.93555H87.7477C90.1473 7.93555 91.8631 9.55533 91.8631 11.5351C91.8665 12.1735 91.6869 12.7995 91.3457 13.3391C91.0044 13.8787 90.5157 14.3092 89.9374 14.5797L92.916 19.0401L89.4634 19.0341ZM86.4638 12.8039H87.6637C87.8153 12.8118 87.9669 12.7887 88.1093 12.7361C88.2517 12.6835 88.3819 12.6024 88.492 12.4979C88.6021 12.3934 88.6897 12.2675 88.7496 12.1281C88.8095 11.9886 88.8404 11.8384 88.8404 11.6865C88.8404 11.5347 88.8095 11.3845 88.7496 11.245C88.6897 11.1055 88.6021 10.9797 88.492 10.8752C88.3819 10.7707 88.2517 10.6896 88.1093 10.637C87.9669 10.5844 87.8153 10.5613 87.6637 10.5692H86.4638V12.8039Z" fill="#2F2F2F"/>
<path d="M93.9778 7.92285H96.9294V19.0214H93.9778V7.92285Z" fill="#2F2F2F"/>
<path d="M109.597 7.92285L104.476 19.1504H103.139L98.0393 7.92285H101.225L103.79 13.94L106.36 7.92285H109.597Z" fill="#2F2F2F"/>
<path d="M115.071 17.7378H110.92L110.356 19.0337H107.128L112.29 7.78516H113.691L118.859 19.0337H115.623L115.071 17.7378ZM114.123 15.5811L112.986 12.9475L111.84 15.5811H114.123Z" fill="#2F2F2F"/>
<path d="M126.203 10.6795H123.542V19.0334H120.584V10.6795H117.915V7.92285H126.203V10.6795Z" fill="#2F2F2F"/>
<path d="M127.456 7.92285H130.405V19.0214H127.456V7.92285Z" fill="#2F2F2F"/>
<path d="M143.075 7.92285L137.955 19.1504H136.62L131.521 7.92285H134.712L137.277 13.94L139.848 7.92285H143.075Z" fill="#2F2F2F"/>
<path d="M147.101 10.6798V12.2306H150.628V14.6933H147.101V16.2861H151.387V19.0487H144.188V7.9502H151.387V10.6798H147.101Z" fill="#2F2F2F"/>
<path d="M55.646 30.4168C55.646 27.1173 58.3066 24.6006 61.7682 24.6006C63.2932 24.6583 64.7488 25.2533 65.8776 26.2804L64.1799 28.4611C63.5286 27.8424 62.6773 27.4774 61.7802 27.4322C60.9846 27.4243 60.2185 27.7327 59.6504 28.2896C59.0822 28.8465 58.7585 29.6063 58.7506 30.4018C58.7426 31.1974 59.051 31.9635 59.6079 32.5316C60.1648 33.0998 60.9246 33.4235 61.7202 33.4314C62.6524 33.3916 63.5365 33.0067 64.2009 32.3516L65.8836 34.5923C64.7511 35.6414 63.2641 36.2242 61.7202 36.224C58.5766 36.221 55.646 33.9053 55.646 30.4168Z" fill="#2F2F2F"/>
<path d="M74.2495 34.6763H70.1011L69.5371 35.9721H66.3096L71.4719 24.7236H72.8727L78.041 35.9721H74.8104L74.2495 34.6763ZM73.3286 32.5196L72.1768 29.8769L71.0309 32.5106L73.3286 32.5196Z" fill="#2F2F2F"/>
<path d="M86.3558 33.2039V35.9725H79.1567V24.874H82.1083V33.2159L86.3558 33.2039Z" fill="#2F2F2F"/>
<path d="M86.9528 30.4168C86.9528 27.1173 89.6134 24.6006 93.0749 24.6006C94.6 24.6583 96.0556 25.2533 97.1844 26.2804L95.4866 28.4611C94.8354 27.8424 93.9841 27.4774 93.0869 27.4322C92.693 27.4283 92.3022 27.502 91.9368 27.6491C91.5713 27.7962 91.2384 28.0138 90.9571 28.2896C90.6758 28.5653 90.4515 28.8938 90.2972 29.2562C90.1428 29.6186 90.0613 30.0079 90.0573 30.4018C90.0534 30.7957 90.1271 31.1866 90.2742 31.552C90.4213 31.9174 90.6389 32.2503 90.9147 32.5316C91.1905 32.813 91.5189 33.0372 91.8813 33.1916C92.2438 33.346 92.633 33.4275 93.027 33.4314C93.9592 33.3916 94.8433 33.0067 95.5076 32.3516L97.1904 34.5923C96.0578 35.6414 94.5708 36.2242 93.027 36.224C89.8834 36.221 86.9528 33.9053 86.9528 30.4168Z" fill="#2F2F2F"/>
<path d="M98.3423 31.9354V24.8623H101.312V31.9264C101.317 32.1351 101.363 32.3408 101.448 32.5315C101.534 32.7223 101.656 32.8942 101.808 33.0373C101.96 33.1804 102.139 33.292 102.334 33.3654C102.53 33.4389 102.738 33.4728 102.947 33.4652C103.369 33.4773 103.778 33.3225 104.086 33.0344C104.395 32.7463 104.577 32.3481 104.593 31.9264V24.8623H107.563V31.9354C107.563 34.485 105.496 36.2848 102.953 36.2848C100.409 36.2848 98.3423 34.485 98.3423 31.9354Z" fill="#2F2F2F"/>
<path d="M116.601 33.2039V35.9725H109.402V24.874H112.353V33.2159L116.601 33.2039Z" fill="#2F2F2F"/>
<path d="M124.976 34.6763H120.824L120.26 35.9721H117.033L122.198 24.7236H123.596L128.764 35.9721H125.522L124.976 34.6763ZM124.037 32.5196L122.9 29.8769L121.754 32.5106L124.037 32.5196Z" fill="#2F2F2F"/>
<path d="M136.107 27.6189H133.447V35.9728H130.489V27.6189H127.822V24.8623H136.107V27.6189Z" fill="#2F2F2F"/>
<path d="M136.32 30.4326C136.32 27.0971 138.969 24.5654 142.421 24.5654C145.874 24.5654 148.523 27.0971 148.523 30.4326C148.523 33.7682 145.874 36.2579 142.415 36.2579C138.957 36.2579 136.32 33.7412 136.32 30.4326ZM145.538 30.4116C145.556 29.7917 145.388 29.1806 145.057 28.6563C144.726 28.1321 144.245 27.7187 143.678 27.4689C143.11 27.2192 142.481 27.1445 141.87 27.2544C141.26 27.3643 140.696 27.6538 140.251 28.0859C139.807 28.5179 139.501 29.0729 139.373 29.6798C139.245 30.2867 139.301 30.9179 139.534 31.4926C139.767 32.0673 140.167 32.5595 140.681 32.9061C141.195 33.2527 141.801 33.438 142.421 33.4382C142.827 33.4507 143.23 33.3816 143.609 33.2352C143.987 33.0887 144.332 32.8678 144.623 32.5855C144.914 32.3032 145.146 31.9654 145.304 31.592C145.462 31.2186 145.544 30.8172 145.544 30.4116H145.538Z" fill="#2F2F2F"/>
<path d="M155.911 35.9725L152.938 31.1492V35.9725H149.989L149.974 24.874H154.192C156.591 24.874 158.307 26.4938 158.307 28.4735C158.309 29.1108 158.129 29.7354 157.788 30.2741C157.448 30.8127 156.961 31.2432 156.385 31.5151L159.363 35.9725H155.911ZM152.926 29.7424H154.126C154.279 29.7536 154.433 29.7331 154.578 29.6822C154.724 29.6312 154.857 29.5508 154.969 29.4461C155.082 29.3414 155.172 29.2146 155.233 29.0735C155.295 28.9325 155.327 28.7804 155.327 28.6265C155.327 28.4727 155.295 28.3205 155.233 28.1795C155.172 28.0385 155.082 27.9117 154.969 27.8069C154.857 27.7022 154.724 27.6219 154.578 27.5709C154.433 27.5199 154.279 27.4994 154.126 27.5107H152.926V29.7424Z" fill="#2F2F2F"/>
<path d="M10.8919 41.6928C10.8919 39.5361 10.688 32.862 10.688 30.8432C10.688 22.5673 10.745 14.2944 10.667 6.02155C10.6577 5.33826 10.7852 4.66001 11.0419 4.0267C11.2986 3.39339 11.6793 2.81779 12.1617 2.33374C12.644 1.8497 13.2183 1.46698 13.8507 1.2081C14.4832 0.949214 15.161 0.819384 15.8443 0.826244C26.1709 0.766252 36.5025 0.766252 46.8391 0.826244C49.8208 0.844242 52.0765 3.15993 51.9985 6.02155C51.8995 9.62107 51.8995 33.1439 52.0165 36.7315C52.0765 38.4172 51.1166 39.1821 49.8418 40.163C49.7998 39.5361 49.7608 39.1041 49.7608 38.6632V6.60947C49.7608 4.09881 48.7619 3.11794 46.3112 3.11794H16.4322C13.8825 3.11794 12.9017 4.09881 12.9017 6.64847C12.9017 15.2933 12.8237 23.9412 12.9617 32.586C12.9797 34.5687 12.5777 40.5559 10.8919 41.6928Z" fill="#2F2F2F"/>
<path d="M51.5515 5.4248C51.5515 7.58152 51.9684 13.7007 51.9684 15.7194C51.9684 23.9953 51.9114 32.2682 51.9894 40.5411C51.9987 41.2244 51.8712 41.9027 51.6145 42.536C51.3578 43.1693 50.9771 43.7449 50.4947 44.2289C50.0123 44.713 49.4381 45.0957 48.8057 45.3546C48.1732 45.6135 47.4954 45.7433 46.8121 45.7364C36.4815 45.7964 26.1489 45.7964 15.8142 45.7364C12.8356 45.7184 10.5799 43.4057 10.6579 40.5411C10.7569 36.9536 10.7569 13.4187 10.6369 9.83122C10.5799 8.14544 11.5368 7.38054 12.8146 6.39967C12.8536 7.02659 12.8956 7.45853 12.8956 7.89947V39.9532C12.8956 42.4639 13.8945 43.4447 16.3452 43.4447H46.2242C48.7739 43.4447 49.7547 42.4639 49.7547 39.9142C49.7547 31.2694 49.8327 22.6215 49.6947 13.9767C49.6767 11.9969 49.8657 6.56165 51.5515 5.4248Z" fill="#2F2F2F"/>
<path d="M31.2922 17.0987H18.3939C16.6901 17.0987 16.2942 16.7057 16.2942 14.96C16.2942 12.7073 16.2942 10.4606 16.3152 8.21688C16.3332 6.96305 16.9151 6.39312 18.1959 6.39312C26.9608 6.39312 35.7046 6.37212 44.4694 6.39312C45.8612 6.39312 46.3892 6.92105 46.3892 8.27387C46.4102 10.5506 46.4102 12.8423 46.3892 15.119C46.3892 16.6458 45.9572 17.0597 44.4484 17.0777C40.057 17.1167 35.6836 17.0987 31.2922 17.0987ZM31.2142 14.903C34.9187 14.903 38.6262 14.921 42.3307 14.903C43.7615 14.903 44.1545 14.51 44.1545 13.1182C44.1755 12.1764 44.1755 11.2555 44.1545 10.3136C44.1335 9.11376 43.8005 8.7658 42.6067 8.74481C41.4878 8.72681 40.351 8.72681 39.2321 8.72681H20.5866C18.7059 8.72681 18.4869 8.96078 18.4869 10.8835V13.0192C18.5049 14.57 18.8379 14.921 20.4276 14.921C24.0392 14.903 27.6267 14.903 31.2142 14.903Z" fill="#2F2F2F"/>
<path d="M31.3132 28.2937C30.6053 28.2937 29.9004 28.3147 29.1745 28.2937C28.8805 28.3205 28.5845 28.273 28.3136 28.1557C26.9008 27.3128 27.4348 25.903 27.4348 24.7062C27.4138 23.7853 28.1577 23.3144 29.0035 23.2754C30.5693 23.2154 32.1381 23.2154 33.7069 23.2934C34.7658 23.3534 35.2967 24.0193 35.2967 25.0931V26.329C35.2577 27.7988 34.6968 28.3087 33.218 28.3297C32.5671 28.2937 31.9342 28.2937 31.3132 28.2937Z" fill="#2F2F2F"/>
<path d="M42.1087 28.2937C41.4038 28.2937 40.6989 28.3147 39.973 28.2937C39.678 28.3202 39.3811 28.2728 39.1091 28.1557C37.6993 27.3128 38.2332 25.903 38.2332 24.7062C38.2152 23.7853 38.9591 23.3144 39.802 23.2754C41.3708 23.2154 42.9396 23.2154 44.5084 23.2934C45.5672 23.3534 46.0952 24.0193 46.0952 25.0931V26.329C46.0562 27.7988 45.4952 28.3087 44.0164 28.3297C43.3655 28.2937 42.7326 28.2937 42.1087 28.2937Z" fill="#2F2F2F"/>
<path d="M31.3132 36.2961C30.6053 36.2961 29.9004 36.3141 29.1745 36.2961C28.8805 36.3229 28.5845 36.2755 28.3136 36.1582C26.9008 35.3153 27.4317 33.9025 27.4317 32.7056C27.4107 31.7847 28.1546 31.3138 29.0005 31.2748C30.5663 31.2178 32.1351 31.2178 33.7039 31.2958C34.7628 31.3528 35.2937 32.0217 35.2937 33.0956V34.3284C35.2547 35.8012 34.6938 36.3111 33.215 36.3291C32.5671 36.2961 31.9341 36.2961 31.3132 36.2961Z" fill="#2F2F2F"/>
<path d="M19.4437 28.2937C18.7388 28.2937 18.0339 28.3147 17.308 28.2937C17.0131 28.3202 16.7162 28.2728 16.4441 28.1557C15.0343 27.3128 15.5623 25.903 15.5623 24.7062C15.5443 23.7853 16.2882 23.3144 17.1311 23.2754C18.6998 23.2154 20.2686 23.2154 21.8374 23.2934C22.8963 23.3534 23.4242 24.0193 23.4242 25.0931V26.329C23.3852 27.7988 22.8243 28.3087 21.3455 28.3297C20.7006 28.2937 20.0737 28.2937 19.4437 28.2937Z" fill="#2F2F2F"/>
<path d="M19.4437 36.2961C18.7388 36.2961 18.0339 36.3141 17.308 36.2961C17.0131 36.3226 16.7162 36.2752 16.4441 36.1582C15.0343 35.3153 15.5623 33.9025 15.5623 32.7056C15.5443 31.7847 16.2882 31.3138 17.1311 31.2748C18.6998 31.2178 20.2686 31.2178 21.8374 31.2958C22.8963 31.3528 23.4242 32.0217 23.4242 33.0956V34.3284C23.3852 35.8012 22.8243 36.3111 21.3455 36.3291C20.7006 36.2961 20.0737 36.2961 19.4437 36.2961Z" fill="#2F2F2F"/>
<path d="M42.1088 36.2961C41.4039 36.2961 40.699 36.3141 39.9731 36.2961C39.6781 36.3226 39.3812 36.2752 39.1092 36.1582C37.6994 35.3153 38.2273 33.9025 38.2273 32.7056C38.2093 31.7847 38.9532 31.3138 39.7961 31.2748C41.3649 31.2178 42.9337 31.2178 44.5025 31.2958C45.5613 31.3528 46.0893 32.0217 46.0893 33.0956V34.3284C46.0503 35.8012 45.4893 36.3111 44.0105 36.3291C43.3656 36.2961 42.7327 36.2961 42.1088 36.2961Z" fill="#2F2F2F"/>
</g>
</g>
<defs>
<clipPath id="clip0_1_2092">
<rect width="170" height="45" fill="white" transform="translate(0 0.78125)"/>
</clipPath>
<clipPath id="clip1_1_2092">
<rect width="148.726" height="45" fill="white" transform="translate(10.637 0.78125)"/>
</clipPath>
</defs>
</svg>
